<?xml version="1.0" encoding="UTF-8"?>
<svg width="402px" height="402px" viewBox="0 0 402 402" version="1.1" xmlns="http://www.w3.org/2000/svg" xmlns:xlink="http://www.w3.org/1999/xlink">
    <!-- Generator: Sketch 55.2 (78181) - https://sketchapp.com -->
    <title>camera</title>
    <desc>Created with Sketch.</desc>
    <g id="camera" stroke="none" stroke-width="1" fill="none" fill-rule="evenodd">
        <path d="M129.321445,282 L272.678511,282 C290.892837,282 300,272.988069 300,254.96414 L300,167.205161 C300,149.181364 290.892837,140.276799 272.678511,140.276799 L254.142942,140.276799 C247.607043,140.276799 245.571404,138.667355 241.928671,134.697905 L235.392772,127.295341 C231.214194,122.789337 226.714372,120 217.928672,120 L183.964203,120 C175.178503,120 170.571381,122.789337 166.500103,127.295341 L159.964204,134.697905 C156.321471,138.667355 154.178532,140.276799 147.749933,140.276799 L129.321445,140.276799 C111.107119,140.276799 102,149.181364 102,167.205161 L102,254.96414 C102,272.988069 111.107119,282 129.321445,282 Z M200.999978,161.948376 C224.785814,161.948376 243.857228,181.045062 243.857228,204.969422 C243.857228,228.786778 224.785814,247.883465 200.999978,247.883465 C177.214361,247.883465 158.142947,228.786778 158.142947,204.969422 C158.142947,181.045062 177.214361,161.948376 200.999978,161.948376 Z M200.999978,178.470172 C186.321524,178.470172 174.535797,190.164294 174.535797,204.969422 C174.535797,219.667547 186.321524,231.361669 200.999978,231.361669 C215.678652,231.361669 227.464379,219.667547 227.464379,204.969422 C227.464379,190.164294 215.678652,178.470172 200.999978,178.470172 Z" id="Shape" fill="#FFFFFF" fill-rule="nonzero"></path>
    </g>
</svg>