<?xml version="1.0" encoding="UTF-8"?>
<svg width="402px" height="402px" viewBox="0 0 402 402" version="1.1" xmlns="http://www.w3.org/2000/svg" xmlns:xlink="http://www.w3.org/1999/xlink">
    <!-- Generator: Sketch 55.2 (78181) - https://sketchapp.com -->
    <title>email</title>
    <desc>Created with Sketch.</desc>
    <g id="email" stroke="none" stroke-width="1" fill="none" fill-rule="evenodd">
        <path d="M201.177536,207.756239 C197.538043,207.756239 194.076087,205.980267 190.259058,202.161927 L112.586957,125.351132 C115.516304,122.420778 120.753623,121 128.210145,121 L271.126812,121 C279.914855,121 286.039855,122.509576 289.324275,125.706326 L212.096014,202.161927 C208.278986,206.069066 204.905797,207.756239 201.177536,207.756239 Z M105.219203,259.703424 C103.798913,257.217063 103,252.777133 103,246.472432 L103,148.43877 C103,142.311666 103.710145,138.049333 105.041667,135.562972 L167.978261,197.633198 L105.219203,259.703424 Z M296.958333,259.614626 L234.376812,197.633198 L297.047101,135.829367 C298.378623,138.22693 299,142.489263 299,148.43877 L299,246.472432 C299,252.688334 298.289855,257.039466 296.958333,259.614626 Z M130.873188,274 C122.440217,274 116.492754,272.579222 113.119565,269.648868 L176.943841,206.335461 L182.891304,212.284968 C188.927536,218.145676 194.697464,220.809634 201.177536,220.809634 C207.657609,220.809634 213.427536,218.145676 219.463768,212.284968 L225.411232,206.335461 L289.324275,269.737667 C286.394928,272.579222 281.246377,274 273.789855,274 L130.873188,274 Z" id="Email" fill="#000000" fill-rule="nonzero"></path>
    </g>
</svg>