<?xml version="1.0" encoding="UTF-8"?>
<svg width="402px" height="402px" viewBox="0 0 402 402" version="1.1" xmlns="http://www.w3.org/2000/svg" xmlns:xlink="http://www.w3.org/1999/xlink">
    <!-- Generator: Sketch 55.2 (78181) - https://sketchapp.com -->
    <title>facebook</title>
    <desc>Created with Sketch.</desc>
    <g id="facebook" stroke="none" stroke-width="1" fill="none" fill-rule="evenodd">
        <path d="M317,201.929368 C317,137.903299 265.065078,86 201,86 C136.934922,86 85,137.903299 85,201.929368 C85,259.793067 127.419523,307.753409 182.875,316.450375 L182.875,235.440201 L153.421875,235.440201 L153.421875,201.929368 L182.875,201.929368 L182.875,176.388679 C182.875,147.333881 200.192984,131.284909 226.689922,131.284909 C239.381273,131.284909 252.65625,133.549155 252.65625,133.549155 L252.65625,162.078648 L238.028922,162.078648 C223.618867,162.078648 219.125,171.014945 219.125,180.182875 L219.125,201.929368 L251.296875,201.929368 L246.153906,235.440201 L219.125,235.440201 L219.125,316.450375 C274.580477,307.753409 317,259.793067 317,201.929368" id="Facebook" fill="#000000"></path>
    </g>
</svg>