<?xml version="1.0" encoding="UTF-8"?>
<svg width="402px" height="402px" viewBox="0 0 402 402" version="1.1" xmlns="http://www.w3.org/2000/svg" xmlns:xlink="http://www.w3.org/1999/xlink">
    <!-- Generator: Sketch 55.2 (78181) - https://sketchapp.com -->
    <title>instagram</title>
    <desc>Created with Sketch.</desc>
    <g id="instagram" stroke="none" stroke-width="1" fill="none" fill-rule="evenodd">
        <path d="M200.966143,93.0681429 C230.287714,93.0681429 233.964429,93.1924286 245.480143,93.7178571 C256.971857,94.242 264.820286,96.0672857 271.687714,98.7364286 C278.787429,101.495143 284.808429,105.186857 290.811,111.189 C296.813143,117.191571 300.504857,123.212571 303.264,130.312286 C305.932714,137.179714 307.758,145.028143 308.282143,156.519857 C308.807571,168.035571 308.931857,171.712286 308.931857,201.034286 C308.931857,230.355857 308.807571,234.032571 308.282143,245.548286 C307.758,257.04 305.932714,264.888429 303.264,271.755857 C300.504857,278.855571 296.813143,284.876571 290.811,290.879143 C284.808429,296.881286 278.787429,300.573 271.687714,303.332143 C264.820286,306.000857 256.971857,307.826143 245.480143,308.350286 C233.964429,308.875714 230.287714,309 200.966143,309 C171.644143,309 167.967429,308.875714 156.451714,308.350286 C144.96,307.826143 137.111571,306.000857 130.244143,303.332143 C123.144429,300.573 117.123429,296.881286 111.120857,290.879143 C105.118714,284.876571 101.427,278.855571 98.6682857,271.755857 C95.9991429,264.888429 94.1738571,257.04 93.6497143,245.548286 C93.1242857,234.032571 93,230.355857 93,201.034286 C93,171.712286 93.1242857,168.035571 93.6497143,156.519857 C94.1738571,145.028143 95.9991429,137.179714 98.6682857,130.312286 C101.427,123.212571 105.118714,117.191571 111.120857,111.189 C117.123429,105.186857 123.144429,101.495143 130.244143,98.7364286 C137.111571,96.0672857 144.96,94.242 156.451714,93.7178571 C167.967429,93.1924286 171.644143,93.0681429 200.966143,93.0681429 Z M200.966143,112.521429 C172.137857,112.521429 168.723,112.631571 157.338429,113.151 C146.811857,113.631 141.095143,115.389857 137.290714,116.868429 C132.251143,118.827 128.654571,121.166571 124.876714,124.944857 C121.098429,128.722714 118.758857,132.319286 116.800286,137.358857 C115.321714,141.163286 113.562857,146.88 113.082857,157.406571 C112.563429,168.791143 112.453286,172.206 112.453286,201.034286 C112.453286,229.862143 112.563429,233.277 113.082857,244.661571 C113.562857,255.188143 115.321714,260.904857 116.800286,264.709286 C118.758857,269.748857 121.098857,273.345429 124.876714,277.123286 C128.654571,280.901571 132.251143,283.241143 137.290714,285.199714 C141.095143,286.678286 146.811857,288.437143 157.338429,288.917143 C168.721714,289.436571 172.135714,289.546714 200.966143,289.546714 C229.796143,289.546714 233.210571,289.436571 244.593429,288.917143 C255.12,288.437143 260.836714,286.678286 264.641143,285.199714 C269.680714,283.241143 273.277286,280.901571 277.055143,277.123286 C280.833429,273.345429 283.173,269.748857 285.131571,264.709286 C286.610143,260.904857 288.369,255.188143 288.849,244.661571 C289.368429,233.277 289.478571,229.862143 289.478571,201.034286 C289.478571,172.206 289.368429,168.791143 288.849,157.406571 C288.369,146.88 286.610143,141.163286 285.131571,137.358857 C283.173,132.319286 280.833429,128.722714 277.055143,124.944857 C273.277286,121.166571 269.680714,118.827 264.641143,116.868429 C260.836714,115.389857 255.12,113.631 244.593429,113.151 C233.208857,112.631571 229.794,112.521429 200.966143,112.521429 Z M200.966143,237.022714 C220.842,237.022714 236.954571,220.910143 236.954571,201.034286 C236.954571,181.158 220.842,165.045429 200.966143,165.045429 C181.089857,165.045429 164.977286,181.158 164.977286,201.034286 C164.977286,220.910143 181.089857,237.022714 200.966143,237.022714 Z M200.966143,145.592143 C231.585857,145.592143 256.407857,170.414143 256.407857,201.034286 C256.407857,231.654 231.585857,256.476 200.966143,256.476 C170.346,256.476 145.524,231.654 145.524,201.034286 C145.524,170.414143 170.346,145.592143 200.966143,145.592143 Z M271.554429,143.401714 C271.554429,150.557143 265.753714,156.357429 258.598286,156.357429 C251.443286,156.357429 245.642571,150.557143 245.642571,143.401714 C245.642571,136.246286 251.443286,130.445571 258.598286,130.445571 C265.753714,130.445571 271.554429,136.246286 271.554429,143.401714 Z" id="Instagram" fill="#000000"></path>
    </g>
</svg>