<?xml version="1.0" encoding="UTF-8"?>
<svg width="402px" height="402px" viewBox="0 0 402 402" version="1.1" xmlns="http://www.w3.org/2000/svg" xmlns:xlink="http://www.w3.org/1999/xlink">
    <!-- Generator: Sketch 55.2 (78181) - https://sketchapp.com -->
    <title>linkedin</title>
    <desc>Created with Sketch.</desc>
    <g id="linkedin" stroke="none" stroke-width="1" fill="none" fill-rule="evenodd">
        <path d="M102,285.744879 L102,115.255121 C102,107.381699 108.550727,101 116.631838,101 L285.368162,101 C293.449007,101 300,107.381699 300,115.255121 L300,285.744879 C300,293.615642 293.449007,300 285.368162,300 L116.631838,300 C108.550727,300 102,293.615642 102,285.744879 Z M178.567941,133.416374 C178.567941,133.416374 178.961187,214.844199 178.567941,223.276019 L208.474602,223.276019 L208.474602,210.244057 L208.274917,210.244057 C212.210039,216.378466 219.292726,225.384639 235.426193,225.384639 C255.102069,225.384639 269.856114,212.541469 269.856114,184.940619 L269.856114,133.416374 L239.952648,133.416374 L239.952648,181.489183 C239.952648,193.569209 235.623748,201.809578 224.802163,201.809578 C216.540537,201.809578 211.619771,196.252181 209.45785,190.886236 C208.668163,188.966408 208.473803,186.283435 208.473803,183.597803 L208.473803,133.416374 L178.567941,133.416374 Z M162.019928,133.416374 L132.1138,133.416374 L132.1138,223.276019 L162.019928,223.276019 L162.019928,133.416374 Z M147.066731,235.544836 L147.066199,235.544836 L146.871839,235.544836 C136.83568,235.544836 130.345924,242.445049 130.345924,251.06832 C130.345924,259.885701 137.034566,266.594463 147.264552,266.594463 C157.495603,266.594463 163.79233,259.885701 163.98669,251.06832 C163.98669,242.445049 157.495603,235.544836 147.066731,235.544836 Z" id="LinkedIn" fill="#000000" fill-rule="nonzero" transform="translate(201.000000, 200.500000) scale(-1, 1) rotate(-180.000000) translate(-201.000000, -200.500000) "></path>
    </g>
</svg>