<?xml version="1.0" encoding="UTF-8"?>
<svg width="402px" height="402px" viewBox="0 0 402 402" version="1.1" xmlns="http://www.w3.org/2000/svg" xmlns:xlink="http://www.w3.org/1999/xlink">
    <!-- Generator: Sketch 55.2 (78181) - https://sketchapp.com -->
    <title>phone</title>
    <desc>Created with Sketch.</desc>
    <g id="phone" stroke="none" stroke-width="1" fill="none" fill-rule="evenodd">
        <path d="M159.590615,246.717286 C130.852751,217.870759 109,183.01454 109,154.268174 C109,141.547658 113.290723,130.029079 122.969795,120.714055 C128.757282,115.004847 135.642395,112 142.228155,112 C147.616505,112 152.505933,114.103393 155.998382,118.911147 L177.451996,149.260097 C180.744876,153.96769 182.341424,157.87399 182.341424,161.479806 C182.341424,166.087237 179.747033,170.0937 175.256742,174.701131 L168.271845,182.012924 C167.174218,183.114701 166.775081,184.416801 166.775081,185.718901 C166.775081,187.221325 167.274002,188.623586 167.872708,189.725363 C171.065804,195.93538 180.14617,206.552504 189.925027,216.368336 C199.803668,226.184168 210.380798,235.298869 216.467638,238.6042 C217.565264,239.105008 218.962244,239.705977 220.558792,239.705977 C221.855987,239.705977 223.252967,239.20517 224.350593,238.103393 L231.435275,231.092084 C236.025351,226.584814 240.016721,223.980614 244.606796,223.980614 C248.199029,223.980614 252.090615,225.583199 256.780475,228.788368 L287.314455,250.623586 C292.104099,254.029079 294,258.836834 294,263.844911 C294,270.655897 290.70712,277.567044 285.418554,283.476575 C276.338188,293.49273 265.062567,298 252.190399,298 C223.552319,298 188.428263,275.663974 159.590615,246.717286 Z" id="Phone" fill="#000000" fill-rule="nonzero"></path>
    </g>
</svg>