<?xml version="1.0" encoding="UTF-8"?>
<svg width="402px" height="402px" viewBox="0 0 402 402" version="1.1" xmlns="http://www.w3.org/2000/svg" xmlns:xlink="http://www.w3.org/1999/xlink">
    <!-- Generator: Sketch 55.2 (78181) - https://sketchapp.com -->
    <title>twitter</title>
    <desc>Created with Sketch.</desc>
    <g id="twitter" stroke="none" stroke-width="1" fill="none" fill-rule="evenodd">
        <path d="M168.44352,299 C252.97216,299 299.20576,228.973704 299.20576,168.247216 C299.20576,166.25824 299.20576,164.278223 299.07136,162.307166 C308.065689,155.801878 315.829745,147.747138 322,138.520086 C313.612356,142.236441 304.71463,144.673626 295.60384,145.750283 C305.197706,140.007178 312.378067,130.974269 315.80864,120.332602 C306.787331,125.685414 296.917789,129.457809 286.62592,131.486995 C272.380262,116.340263 249.744045,112.633047 231.410361,122.444141 C213.076678,132.255235 203.605024,153.144667 208.30656,173.398844 C171.354586,171.546493 136.926503,154.094336 113.5904,125.385676 C101.39246,146.383214 107.622931,173.245276 127.81888,186.73036 C120.505201,186.513611 113.350983,184.540812 106.96,180.978456 C106.96,181.166602 106.96,181.363708 106.96,181.560813 C106.965986,203.435904 122.386893,222.276904 143.8304,226.608435 C137.064432,228.453525 129.965522,228.723239 123.07904,227.396858 C129.099693,246.116733 146.353308,258.940801 166.01536,259.31007 C149.741626,272.098936 129.638293,279.0415 108.94016,279.020645 C105.283616,279.013626 101.630628,278.792249 98,278.357653 C119.016898,291.843955 143.471224,298.997464 168.44352,298.964163" id="Path" fill="#000000" fill-rule="nonzero"></path>
    </g>
</svg>